<svg xmlns="http://www.w3.org/2000/svg" viewBox="0 0 40 40" width="40" height="40">
  <defs>
    <linearGradient id="g" x1="0" y1="0" x2="1" y2="1">
      <stop offset="0%" stop-color="#7c4dff"/>
      <stop offset="55%" stop-color="#6a32f5"/>
      <stop offset="100%" stop-color="#3b82f6"/>
    </linearGradient>
  </defs>
  <rect width="40" height="40" rx="11" fill="url(#g)"/>
  <path d="M26.5 14.2c-1.1-1.6-3-2.6-5.4-2.6-3.3 0-5.8 1.9-5.8 4.7 0 2.5 1.8 3.7 4.9 4.5l1.6.4c1.6.4 2.4.9 2.4 1.9 0 1.1-1.1 1.8-2.8 1.8-1.8 0-3.1-.8-3.9-2.2l-3.4 2c1.2 2.3 3.7 3.7 7.1 3.7 3.7 0 6.4-1.9 6.4-5 0-2.7-1.9-3.9-5.1-4.7l-1.6-.4c-1.5-.4-2.2-.8-2.2-1.7 0-1 1-1.6 2.5-1.6 1.5 0 2.7.7 3.4 1.9l3.9-2.1z" fill="#fff"/>
</svg>
